Coordinates
version=1
nRows=19
nColumns=24
inDegrees=yes

Units are S.I. units (second, meters, Newtons, ...)
Angles are in degrees.

endheader
time	pelvis_tilt	pelvis_list	pelvis_rotation	pelvis_tx	pelvis_ty	pelvis_tz	hip_flexion_r	hip_adduction_r	hip_rotation_r	knee_angle_r	ankle_angle_r	subtalar_angle_r	mtp_angle_r	hip_flexion_l	hip_adduction_l	hip_rotation_l	knee_angle_l	ankle_angle_l	subtalar_angle_l	mtp_angle_l	lumbar_extension	lumbar_bending	lumbar_rotation
      0.64800000	     -3.36029018	      4.79606829	      5.94559888	     -0.73159338	      0.96720914	      0.27302776	     31.70252423	     -4.61660850	     -7.65612829	     -6.68535890	      8.86181342	     -4.84554672	      6.23884655	    -17.24432108	      7.57898351	      3.91196403	     -5.10825428	      9.65145168	      2.54430677	      5.30187891	      0.66877299	     -3.86535712	     -5.22160940
      0.65216667	     -3.45452969	      4.73450692	      6.05175973	     -0.72548183	      0.96647199	      0.27313925	     31.74824498	     -4.56061883	     -7.64008767	     -7.08386560	      8.76420504	     -5.08952929	      6.25307144	    -17.30134407	      7.44190520	      3.93203718	     -5.48305734	      9.48129735	      2.63701148	      5.31159881	      0.83272769	     -3.79064726	     -5.26251183
      0.65633333	     -3.56297014	      4.66573931	      6.13830539	     -0.71934729	      0.96573389	      0.27330640	     31.79152576	     -4.47766205	     -7.51388365	     -7.46525537	      8.59108334	     -5.51400276	      6.28569612	    -17.30545668	      7.30246753	      3.87095910	     -5.92653583	      9.34350562	      2.76013306	      5.36780413	      1.01479218	     -3.71360370	     -5.31778105
      0.66050000	     -3.66445632	      4.57491379	      6.22711378	     -0.71312484	      0.96503122	      0.27345405	     31.82473693	     -4.37906645	     -7.43429201	     -7.87184360	      8.37177902	     -5.87327550	      6.31479701	    -17.33842264	      7.13785682	      3.86019831	     -6.32206037	      9.11707082	      2.86945736	      5.43825997	      1.19613158	     -3.60422522	     -5.32695540
      0.66466667	     -3.77909533	      4.48361625	      6.30256206	     -0.70687147	      0.96432723	      0.27361711	     31.87112396	     -4.27284233	     -7.31672313	     -8.29137892	      8.09358526	     -6.30039585	      6.34852953	    -17.33314784	      6.97903960	      3.81342871	     -6.76329263	      8.89463168	      2.96601177	      5.53432489	      1.40786275	     -3.48820530	     -5.33443261
      0.66883333	     -3.87419932	      4.38494802	      6.35136550	     -0.70060767	      0.96366208	      0.27385045	     31.88252482	     -4.13156668	     -7.08835275	     -8.68892721	      7.77537861	     -6.94947753	      6.42053950	    -17.31023922	      6.81480952	      3.68782645	     -7.27436714	      8.70326586	      3.07976078	      5.75561945	      1.58624417	     -3.37417179	     -5.33374786
      0.67300000	     -3.98400614	      4.27166601	      6.40327374	     -0.69427616	      0.96300713	      0.27404940	     31.91868735	     -3.98876573	     -6.93703679	     -9.11860145	      7.38993435	     -7.46074372	      6.49626660	    -17.28122906	      6.63870303	      3.61176898	     -7.76136368	      8.44022905	      3.16392107	      6.00924058	      1.79635479	     -3.23355632	     -5.30766339
      0.67716667	     -4.08384003	      4.14512849	      6.45585370	     -0.68786266	      0.96240781	      0.27421396	     31.94918139	     -3.84472288	     -6.87063717	     -9.57491287	      6.99017585	     -7.80237649	      6.53325776	    -17.27580909	      6.44805443	      3.57514723	     -8.21325945	      8.05498360	      3.23408989	      6.15437499	      2.01475987	     -3.06161457	     -5.27525665
      0.68133333	     -4.19004057	      3.99420426	      6.47856558	     -0.68148436	      0.96183012	      0.27451068	     31.95697069	     -3.62915253	     -6.57979557	     -9.96817243	      6.57970312	     -8.73292473	      6.68530526	    -17.18957690	      6.23200804	      3.39647952	     -8.79826750	      7.76524877	      3.38467534	      6.74186301	      2.22229492	     -2.88390581	     -5.21513836
      0.68550000	     -4.28912734	      3.85212647	      6.49703797	     -0.67506047	      0.96127880	      0.27474272	     31.99279708	     -3.44860383	     -6.45812414	    -10.42830235	      6.04526402	     -9.17902284	      7.76714973	    -17.12151730	      6.03179708	      3.28281126	     -9.35556815	      7.36871969	      3.41691424	     11.07536144	      2.42871468	     -2.68373705	     -5.16042276
      0.68966667	     -4.45170963	      3.72201900	      6.50398922	     -0.66862217	      0.96069733	      0.27498924	     32.10909206	     -3.27986634	     -6.32052503	    -10.91692544	      5.48568764	     -9.66766147	      7.76832415	    -16.96971767	      5.86090517	      3.19170397	     -9.93830153	      6.92668129	      3.37935904	     11.13803002	      2.72309924	     -2.53847654	     -5.08432659
      0.69383333	     -4.57034580	      3.56189522	      6.49370529	     -0.66215316	      0.96020942	      0.27527779	     32.16763408	     -3.06465315	     -6.15132368	    -11.38614791	      4.92820189	    -10.24926454	      7.77540745	    -16.83974702	      5.65303265	      3.06338620	    -10.55692607	      6.48405035	      3.41511429	     11.27186111	      2.96577012	     -2.33596767	     -4.98780487
      0.69800000	     -4.69694078	      3.37970458	      6.46537894	     -0.65565012	      0.95975603	      0.27559686	     32.24571990	     -2.81913126	     -5.97661497	    -11.88588556	      4.41964105	    -10.94332600	      7.79293445	    -16.69137599	      5.42529399	      2.92404270	    -11.18247817	      5.99941584	      3.48671864	     11.55739222	      3.22907454	     -2.09596531	     -4.87638350
      0.70216667	     -4.79515177	      3.20699455	      6.43008979	     -0.64911935	      0.95938342	      0.27587528	     32.31387204	     -2.60238838	     -5.92474033	    -12.42309202	      3.88999066	    -11.16177568	      7.79300049	    -16.56470903	      5.21316350	      2.82920304	    -11.81547981	      5.38579968	      3.45349859	     11.66750311	      3.45658372	     -1.86002888	     -4.80218379
      0.70633333	     -4.94323756	      3.02147126	      6.37241468	     -0.64266115	      0.95898037	      0.27627312	     32.43268014	     -2.33640914	     -5.69047863	    -12.95229307	      3.36444463	    -12.00040222	      7.80704510	    -16.30993167	      4.99050920	      2.64449416	    -12.58381566	      4.90851314	      3.49482470	     12.14446917	      3.73675015	     -1.62844072	     -4.62344754
      0.71050000	     -5.03515554	      2.83154056	      6.30994371	     -0.63610823	      0.95872519	      0.27659787	     32.50352736	     -2.09458480	     -5.64219989	    -13.51427776	      2.88105407	    -12.14871295	      7.80544826	    -16.14116124	      4.76641676	      2.53526758	    -13.27623725	      4.20309042	      3.44381401	     12.29912055	      3.95886226	     -1.36676680	     -4.54755849
      0.71466667	     -5.14718779	      2.61985573	      6.23139451	     -0.62963537	      0.95845945	      0.27704730	     32.59492648	     -1.80066104	     -5.46533028	    -14.06848818	      2.41617767	    -12.77594455	      7.88400907	    -15.85651163	      4.50795115	      2.29048724	    -14.13726116	      3.55862852	      3.43965855	     17.85782717	      4.20264099	     -1.09589245	     -4.43689474
      0.71883333	     -5.22233103	      2.43752788	      6.13812941	     -0.62311275	      0.95831098	      0.27740989	     32.68254029	     -1.56083201	     -5.42989695	    -14.71105009	      2.02783482	    -12.92895317	      7.87550719	    -15.64897230	      4.30132616	      2.19270809	    -14.91765870	      2.77957793	      3.33164335	     17.87959650	      4.40687047	     -0.83060983	     -4.30414285
      0.72300000	     -5.35970127	      2.25817348	      6.03769280	     -0.61669393	      0.95811789	      0.27787276	     32.83297705	     -1.30399787	     -5.27227065	    -15.33599125	      1.63501247	    -13.31802515	      7.85665124	    -15.29080883	      4.09942197	      2.05065619	    -15.85120218	      2.07831926	      3.23985424	     17.99576462	      4.66375875	     -0.61463438	     -4.08634127
